<svg width="30" height="30" viewBox="0 0 30 30" fill="none" xmlns="http://www.w3.org/2000/svg">
<path d="M5 4H8.35294C8.66588 4 8.94529 4.12737 9.14647 4.33579L11.4712 6.75579L12.3653 5.84105C12.8235 5.38947 13.3824 5.15789 13.9412 5.15789H20.6471C21.2059 5.15789 21.7647 5.38947 22.2229 5.84105L23.3406 6.99895C23.7765 7.47368 24 8.05263 24 8.63158V23.6842C24 24.2984 23.7645 24.8874 23.3453 25.3217C22.9261 25.756 22.3575 26 21.7647 26H10.5882C9.9954 26 9.42684 25.756 9.00764 25.3217C8.58844 24.8874 8.35294 24.2984 8.35294 23.6842V10.9474C8.35294 10.3684 8.57647 9.78947 9.01235 9.31474L9.89529 8.38842L7.89471 6.31579H5V4ZM13.9412 7.47368V9.78947H20.6471V7.47368H13.9412ZM14.3994 14.4211L12.1641 12.1053H10.5882V13.7379L12.8235 16.0537V19.7358L10.5882 22.0516V23.6842H12.1641L14.3994 21.3684H17.9535L20.1888 23.6842H21.7647V22.0516L19.5294 19.7358V16.0537L21.7647 13.7379V12.1053H20.1888L17.9535 14.4211H14.3994ZM15.0588 16.7368H17.2941V19.0526H15.0588V16.7368Z" fill="#7FB7B3"/>
</svg>
