<svg width="30" height="30" viewBox="0 0 30 30" fill="none" xmlns="http://www.w3.org/2000/svg">
<path d="M9.96665 4.57495H6.56665V11.475H9.96665V4.57495Z" fill="#7FB7B3"/>
<path d="M14.5 8.60005C15.1259 8.60005 15.6333 8.08518 15.6333 7.45005C15.6333 6.81492 15.1259 6.30005 14.5 6.30005C13.874 6.30005 13.3666 6.81492 13.3666 7.45005C13.3666 8.08518 13.874 8.60005 14.5 8.60005Z" fill="#7FB7B3"/>
<path d="M22.4333 4.57495H19.0333V11.475H22.4333V4.57495Z" fill="#7FB7B3"/>
<path d="M9.96659 19.5249H6.56659V26.4249H9.96659V19.5249Z" fill="#7FB7B3"/>
<path d="M22.4333 19.5249H19.0333V26.4249H22.4333V19.5249Z" fill="#7FB7B3"/>
<path d="M14.5 24.7C15.1259 24.7 15.6333 24.1852 15.6333 23.55C15.6333 22.9149 15.1259 22.4 14.5 22.4C13.874 22.4 13.3666 22.9149 13.3666 23.55C13.3666 24.1852 13.874 24.7 14.5 24.7Z" fill="#7FB7B3"/>
<path d="M9.4 18.95H7.13333C6.50734 18.95 6 19.4648 6 20.1V25.85C6 26.4852 6.50734 27 7.13333 27H9.4C10.026 27 10.5333 26.4852 10.5333 25.85V24.125H12.9043C13.1388 24.7928 13.7622 25.275 14.5 25.275C15.2378 25.275 15.8608 24.7928 16.0957 24.125H18.4667V25.85C18.4667 26.4852 18.974 27 19.6 27H21.8667C22.4927 27 23 26.4852 23 25.85V20.1C23 19.4648 22.4927 18.95 21.8667 18.95H19.6C18.974 18.95 18.4667 19.4648 18.4667 20.1V22.975H16.0957C15.9246 22.4878 15.5468 22.1045 15.0667 21.9308V9.06921C15.5468 8.89554 15.9246 8.51222 16.0957 8.025H18.4667V10.9C18.4667 11.5352 18.974 12.05 19.6 12.05H21.8667C22.4927 12.05 23 11.5352 23 10.9V5.15C23 4.5148 22.4927 4 21.8667 4H19.6C18.974 4 18.4667 4.5148 18.4667 5.15V6.875H16.0957C15.8612 6.20724 15.2378 5.725 14.5 5.725C13.7622 5.725 13.1392 6.20724 12.9043 6.875H10.5333V5.15C10.5333 4.5148 10.026 4 9.4 4H7.13333C6.50734 4 6 4.5148 6 5.15V10.9C6 11.5352 6.50734 12.05 7.13333 12.05H9.4C10.026 12.05 10.5333 11.5352 10.5333 10.9V8.025H12.9043C13.0754 8.51222 13.4532 8.89554 13.9333 9.06921V21.9312C13.4532 22.1049 13.0754 22.4882 12.9043 22.9754H10.5333V20.1C10.5333 19.4648 10.026 18.95 9.4 18.95ZM9.4 25.85H7.13333V20.1H9.4V25.85ZM19.6 20.1H21.8667V25.85H19.6V20.1ZM19.6 5.15H21.8667V10.9H19.6V5.15ZM9.4 10.9H7.13333V5.15H9.4V10.9ZM14.5 6.875C14.8128 6.875 15.0667 7.13222 15.0667 7.45C15.0667 7.76742 14.8128 8.025 14.5 8.025C14.1872 8.025 13.9333 7.76742 13.9333 7.45C13.9333 7.13222 14.1872 6.875 14.5 6.875ZM14.5 22.975C14.8128 22.975 15.0667 23.2322 15.0667 23.55C15.0667 23.8674 14.8128 24.125 14.5 24.125C14.1872 24.125 13.9333 23.8674 13.9333 23.55C13.9333 23.2322 14.1872 22.975 14.5 22.975Z" fill="#7FB7B3"/>
</svg>
