<svg width="30" height="30" viewBox="0 0 30 30" fill="none" xmlns="http://www.w3.org/2000/svg">
<path d="M20.9167 15.5C20.4525 15.5 20.0074 15.3156 19.6792 14.9874C19.351 14.6592 19.1667 14.2141 19.1667 13.75C19.1667 13.2859 19.351 12.8408 19.6792 12.5126C20.0074 12.1844 20.4525 12 20.9167 12C21.3808 12 21.8259 12.1844 22.1541 12.5126C22.4823 12.8408 22.6667 13.2859 22.6667 13.75C22.6667 14.2141 22.4823 14.6592 22.1541 14.9874C21.8259 15.3156 21.3808 15.5 20.9167 15.5ZM17.4167 10.8333C16.9525 10.8333 16.5074 10.649 16.1792 10.3208C15.851 9.99258 15.6667 9.54746 15.6667 9.08333C15.6667 8.6192 15.851 8.17408 16.1792 7.8459C16.5074 7.51771 16.9525 7.33333 17.4167 7.33333C17.8808 7.33333 18.3259 7.51771 18.6541 7.8459C18.9823 8.17408 19.1667 8.6192 19.1667 9.08333C19.1667 9.54746 18.9823 9.99258 18.6541 10.3208C18.3259 10.649 17.8808 10.8333 17.4167 10.8333ZM11.5833 10.8333C11.1192 10.8333 10.6741 10.649 10.3459 10.3208C10.0177 9.99258 9.83333 9.54746 9.83333 9.08333C9.83333 8.6192 10.0177 8.17408 10.3459 7.8459C10.6741 7.51771 11.1192 7.33333 11.5833 7.33333C12.0475 7.33333 12.4926 7.51771 12.8208 7.8459C13.149 8.17408 13.3333 8.6192 13.3333 9.08333C13.3333 9.54746 13.149 9.99258 12.8208 10.3208C12.4926 10.649 12.0475 10.8333 11.5833 10.8333ZM8.08333 15.5C7.6192 15.5 7.17408 15.3156 6.8459 14.9874C6.51771 14.6592 6.33333 14.2141 6.33333 13.75C6.33333 13.2859 6.51771 12.8408 6.8459 12.5126C7.17408 12.1844 7.6192 12 8.08333 12C8.54746 12 8.99258 12.1844 9.32077 12.5126C9.64896 12.8408 9.83333 13.2859 9.83333 13.75C9.83333 14.2141 9.64896 14.6592 9.32077 14.9874C8.99258 15.3156 8.54746 15.5 8.08333 15.5ZM14.5 5C11.7152 5 9.04451 6.10625 7.07538 8.07538C5.10625 10.0445 4 12.7152 4 15.5C4 18.2848 5.10625 20.9555 7.07538 22.9246C9.04451 24.8938 11.7152 26 14.5 26C14.9641 26 15.4092 25.8156 15.7374 25.4874C16.0656 25.1592 16.25 24.7141 16.25 24.25C16.25 23.795 16.075 23.3867 15.795 23.0833C15.5267 22.7683 15.3517 22.36 15.3517 21.9167C15.3517 21.4525 15.536 21.0074 15.8642 20.6792C16.1924 20.351 16.6375 20.1667 17.1017 20.1667H19.1667C20.7138 20.1667 22.1975 19.5521 23.2915 18.4581C24.3854 17.3642 25 15.8804 25 14.3333C25 9.17667 20.2983 5 14.5 5Z" fill="#7FB7B3"/>
</svg>
